<svg id="visual" viewBox="0 0 900 600" width="900" height="600" xmlns="http://www.w3.org/2000/svg" xmlns:xlink="http://www.w3.org/1999/xlink" version="1.1"><rect x="0" y="0" width="900" height="600" fill="#ffffff"></rect><path d="M0 459L13.7 457.8C27.3 456.7 54.7 454.3 82 455.2C109.3 456 136.7 460 163.8 457.7C191 455.3 218 446.7 245.2 440.2C272.3 433.7 299.7 429.3 327 437.8C354.3 446.3 381.7 467.7 409 470C436.3 472.3 463.7 455.7 491 451.5C518.3 447.3 545.7 455.7 573 460.2C600.3 464.7 627.7 465.3 654.8 460C682 454.7 709 443.3 736.2 439C763.3 434.7 790.7 437.3 818 441C845.3 444.7 872.7 449.3 886.3 451.7L900 454L900 601L886.3 601C872.7 601 845.3 601 818 601C790.7 601 763.3 601 736.2 601C709 601 682 601 654.8 601C627.7 601 600.3 601 573 601C545.7 601 518.3 601 491 601C463.7 601 436.3 601 409 601C381.7 601 354.3 601 327 601C299.7 601 272.3 601 245.2 601C218 601 191 601 163.8 601C136.7 601 109.3 601 82 601C54.7 601 27.3 601 13.7 601L0 601Z" fill="#7dc0da" stroke-linecap="round" stroke-linejoin="miter"></path></svg>